<svg fill="none" height="21" viewBox="0 0 21 21" width="21" xmlns="http://www.w3.org/2000/svg"><path d="m19.5565 10.3436c.001 1.1325-.3001 2.2461-.8744 3.2331-.7543 1.2401-1.8361 2.264-3.1344 2.9666-1.2984.7027-2.7666 1.0589-4.2543 1.0322-1.274.0048-2.53417-.2564-3.69429-.7657l-5.54149 1.6155 1.84716-4.8486c-.57425-.987-.87542-2.1006-.87437-3.2331.03462-1.38926.48459-2.7391 1.29556-3.88639.81096-1.1473 1.94819-2.04296 3.27427-2.57873 1.16012-.5093 2.42026-.77045 3.69436-.76562h.4864c1.9338.01469 3.7945.71611 5.2284 1.97086 1.4338 1.25475 2.3407 2.9753 2.5482 4.83442z" fill="#23719f" fill-opacity=".5"/></svg>