<svg fill="none" height="32" viewBox="0 0 33 32" width="33" xmlns="http://www.w3.org/2000/svg"><path d="m16.4814 16.4545c-3.7667 0-6.89737-3.128-6.89737-6.82933 0-3.82933 3.13067-6.95867 6.89867-6.95867 3.896 0 6.8973 3.128 6.8973 6.95867-.0067 1.81743-.7347 3.55783-2.0241 4.83863-1.2893 1.2808-3.0345 1.9974-4.8519 1.992zm0-9.76533c-1.5947 0-2.808 1.34-2.808 2.93733 0 1.5947 1.2133 2.808 2.8093 2.808 1.66 0 2.8093-1.2133 2.8093-2.808.0014-1.59866-1.1493-2.93733-2.8106-2.93733zm2.7466 15.44803 3.8974 3.7666c.7666.828.7666 2.0414 0 2.808-.8294.828-2.108.828-2.7467 0l-3.896-3.8306-3.768 3.8306c-.3827.3827-.8947.5734-1.4707.5734-.4466 0-.9573-.192-1.4053-.5734-.76667-.7666-.76667-1.98 0-2.8093l3.96-3.7667c-1.4301-.4234-2.802-1.0232-4.084-1.7853-.95867-.5107-1.14933-1.7867-.63867-2.7453.63867-.9574 1.78797-1.212 2.81067-.5734 1.3848.8451 2.9757 1.2922 4.598 1.2922s3.2132-.4471 4.598-1.2922c1.0227-.6386 2.2347-.384 2.8093.5734.576.9586.3187 2.2333-.576 2.7453-1.212.7667-2.6173 1.3413-4.0866 1.788z" fill="#eb722e"/></svg>