<svg fill="none" height="32" viewBox="0 0 33 32" width="33" xmlns="http://www.w3.org/2000/svg" xmlns:xlink="http://www.w3.org/1999/xlink"><radialGradient id="a" cx="0" cy="0" gradientTransform="matrix(0 -26.759 24.888 0 10.1719 31.5795)" gradientUnits="userSpaceOnUse" r="1"><stop offset="0" stop-color="#fd5"/><stop offset=".1" stop-color="#fd5"/><stop offset=".5" stop-color="#ff543e"/><stop offset="1" stop-color="#c837ab"/></radialGradient><radialGradient id="b" cx="0" cy="0" gradientTransform="matrix(2.34767974 11.7287463 -48.34639155 9.67723582 -1.52261 4.44495)" gradientUnits="userSpaceOnUse" r="1"><stop offset="0" stop-color="#3771c8"/><stop offset=".128" stop-color="#3771c8"/><stop offset="1" stop-color="#60f" stop-opacity="0"/></radialGradient><path d="m23.6719 2.5h-14.34378c-3.49492 0-6.32812 2.8332-6.32812 6.32812v14.34378c0 3.4949 2.8332 6.3281 6.32812 6.3281h14.34378c3.4949 0 6.3281-2.8332 6.3281-6.3281v-14.34378c0-3.49492-2.8332-6.32812-6.3281-6.32812z" fill="url(#a)"/><path d="m23.6719 2.5h-14.34378c-3.49492 0-6.32812 2.8332-6.32812 6.32812v14.34378c0 3.4949 2.8332 6.3281 6.32812 6.3281h14.34378c3.4949 0 6.3281-2.8332 6.3281-6.3281v-14.34378c0-3.49492-2.8332-6.32812-6.3281-6.32812z" fill="url(#b)"/><path d="m16.5009 5.45312c-2.8643 0-3.2238.01256-4.3487.06371-1.1229.05147-1.8893.22918-2.55988.49001-.69377.26936-1.28218.62975-1.86837 1.21616-.58673.5863-.94711 1.17471-1.21732 1.86816-.26157.67079-.43949 1.43754-.49001 2.55984-.05031 1.125-.0635 1.4847-.0635 4.3491s.01266 3.2228.06371 4.3477c.05168 1.1229.22939 1.8893.49001 2.5599.26957.6937.62996 1.2822 1.21637 1.8684.58609.5867 1.1745.9479 1.86774 1.2173.67115.2608 1.43765.4385 2.56025.49 1.125.0511 1.4843.0637 4.3485.0637 2.8646 0 3.223-.0126 4.3479-.0637 1.1229-.0515 1.8901-.2292 2.5612-.49.6935-.2694 1.2811-.6306 1.867-1.2173.5868-.5862.947-1.1746 1.2174-1.8681.2592-.6709.4372-1.4375.49-2.5599.0505-1.125.0637-1.4836.0637-4.348s-.0132-3.2239-.0637-4.3489c-.0528-1.1228-.2308-1.88915-.49-2.55972-.2704-.69377-.6306-1.28218-1.2174-1.86848-.5866-.58662-1.1733-.94701-1.8676-1.21606-.6724-.26093-1.4392-.43875-2.562-.49011-1.1251-.05115-1.4833-.06371-4.3485-.06371zm-.9461 1.90066c.2809-.00042.5942 0 .9461 0 2.8162 0 3.1499.01012 4.2619.06064 1.0284.04704 1.5865.21885 1.9583.36324.4922.19111.8431.41966 1.212.7889.3692.36914.5976.72067.7892 1.21289.1444.37125.3165.92935.3633 1.95775.0505 1.1118.0615 1.4457.0615 4.2605 0 2.8147-.011 3.1487-.0615 4.2605-.0471 1.0283-.2189 1.5865-.3633 1.9578-.1911.4922-.42.8427-.7892 1.2116-.3691.3692-.7196.5976-1.212.7888-.3714.1451-.9299.3164-1.9583.3635-1.1118.0505-1.4457.0615-4.2619.0615s-3.15-.011-4.2617-.0615c-1.0284-.0475-1.5865-.2193-1.9586-.3637-.4921-.1912-.84374-.4196-1.21288-.7888-.36914-.3691-.59758-.7198-.78922-1.2122-.14439-.3714-.31641-.9295-.36323-1.9578-.05052-1.1119-.06065-1.4458-.06065-4.2624 0-2.8164.01013-3.1486.06065-4.2605.04703-1.0283.21884-1.5864.36323-1.95821.19121-.49222.42008-.84375.78933-1.21289.36914-.36914.72067-.59769 1.21287-.78922.3718-.14502.9301-.31641 1.9585-.36366.9729-.04398 1.35-.05716 3.3156-.05938zm6.5761 1.7512c-.6988 0-1.2657.56637-1.2657 1.26522 0 .6987.5669 1.2656 1.2657 1.2656.6987 0 1.2656-.5669 1.2656-1.2656 0-.69875-.5669-1.26564-1.2656-1.26564zm-5.63 1.47882c-2.991 0-5.4162 2.4251-5.4162 5.4163s2.4252 5.4152 5.4162 5.4152c2.9912 0 5.4156-2.424 5.4156-5.4152 0-2.9911-2.4246-5.4163-5.4158-5.4163zm0 1.9006c1.9416 0 3.5157 1.5739 3.5157 3.5157 0 1.9416-1.5741 3.5157-3.5157 3.5157s-3.5155-1.5741-3.5155-3.5157c0-1.9418 1.5739-3.5157 3.5155-3.5157z" fill="#fff"/></svg>