<svg fill="none" height="32" viewBox="0 0 33 32" width="33" xmlns="http://www.w3.org/2000/svg" xmlns:xlink="http://www.w3.org/1999/xlink"><linearGradient id="a" gradientUnits="userSpaceOnUse" x1="1316.19" x2="1316.19" y1="2.46143" y2="2628.1"><stop offset="0" stop-color="#2aabee"/><stop offset="1" stop-color="#229ed9"/></linearGradient><path d="m16.4998 2.46143c-3.481 0-6.82258 1.384-9.28206 3.84512-2.46203 2.46211-3.84548 5.80115-3.84616 9.28305 0 3.4804 1.38462 6.822 3.84616 9.2831 2.45948 2.4611 5.80106 3.8451 9.28206 3.8451s6.8226-1.384 9.282-3.8451c2.4616-2.4611 3.8462-5.8027 3.8462-9.2831s-1.3846-6.82192-3.8462-9.28305c-2.4594-2.46112-5.801-3.84512-9.282-3.84512z" fill="url(#a)"/><path d="m9.3144 15.4513c3.8277-1.6673 6.3795-2.7666 7.6554-3.2977 3.6472-1.5165 4.4041-1.7799 4.8984-1.7888.1088-.0017.3508.0252.5088.1528.1312.1077.1682.2534.1866.3556.0164.1022.039.335.0205.5168-.1969 2.0758-1.0523 7.1134-1.4871 9.4385-.1826.9838-.5457 1.3137-.8965 1.3459-.763.0701-1.3415-.5038-2.0799-.9877-1.1549-.7576-1.8072-1.229-2.9293-1.968-1.2964-.8542-.4554-1.3237.2831-2.0909.1928-.2008 3.5528-3.2562 3.6164-3.5333.0082-.0347.0164-.1639-.0615-.232-.0759-.0683-.1887-.045-.2708-.0265-.1169.0263-1.961 1.2464-5.5385 3.6601-.523.3598-.9969.5352-1.4236.526-.4676-.0101-1.3702-.2651-2.04098-.4829-.82051-.2673-1.47487-.4086-1.41743-.8626.02871-.2363.35487-.4781.97641-.7253z" fill="#fff"/></svg>